<svg xmlns="http://www.w3.org/2000/svg" width="60" height="60" viewBox="11 25 76 48">
  <g fill="#cccccc" stroke="none">
    <path d="M82.804,58.125l2.841-1.177c2.087-0.864,3.078-3.257,2.213-5.345c-0.865-2.087-3.258-3.077-5.345-2.212l-2.841,1.177c-2.087,0.864-3.078,3.257-2.213,5.345C78.324,58,80.717,58.991,82.804,58.125z"/>
    <path d="M33.268,37.608c0.865,2.088,3.258,3.079,5.345,2.214c2.087-0.865,3.078-3.258,2.213-5.345l-1.177-2.84c-0.865-2.088-3.258-3.079-5.345-2.214c-2.087,0.865-3.078,3.258-2.213,5.345L33.268,37.608z"/>
    <path d="M14.357,56.96l0-0.001l2.812,1.165c1.009,0.418,2.146,0.414,3.153-0.009l0.057-0.024c2.082-0.877,3.059-3.276,2.182-5.357c-0.469-1.113-1.382-1.877-2.441-2.244L17.488,49.4c-2.088-0.865-4.481,0.126-5.346,2.214C11.278,53.702,12.269,56.095,14.357,56.96z"/>
    <path d="M59.081,37.578c0.839,2.097,3.22,3.118,5.318,2.28l0-0.001l0.057-0.023c1.029-0.413,1.836-1.21,2.26-2.233l1.165-2.812c0.864-2.088-0.127-4.481-2.214-5.343c-2.087-0.864-4.48,0.126-5.343,2.214l-1.081,2.607C58.746,35.272,58.632,36.456,59.081,37.578z"/>
    <path d="M29.508,70.89h40.938c2.259,0,4.09-1.832,4.09-4.09c0-2.26-1.832-4.09-4.09-4.09H29.508c-2.259,0-4.09,1.831-4.09,4.09C25.418,69.057,27.249,70.89,29.508,70.89z"/>
  </g>
</svg>
