<svg xmlns="http://www.w3.org/2000/svg" width="60" height="60" viewBox="4 24 90 52">
  <g fill="#cccccc" stroke="none">
    <path d="M82.928,61.265l9.546-3.955c2.087-0.866,3.078-3.259,2.214-5.345c-0.865-2.088-3.258-3.079-5.345-2.215l-9.546,3.955c-2.087,0.866-3.078,3.259-2.214,5.345C78.448,61.139,80.841,62.13,82.928,61.265z"/>
    <path d="M33.205,40.624c0.865,2.088,3.258,3.079,5.345,2.215c2.087-0.866,3.078-3.259,2.214-5.345l-3.931-9.492c-0.865-2.088-3.258-3.079-5.345-2.215c-2.087,0.866-3.078,3.259-2.214,5.345L33.205,40.624z"/>
    <path d="M7.511,57.26l9.511,3.986c2.084,0.874,4.481-0.108,5.354-2.192c0.873-2.084-0.108-4.481-2.192-5.355l-9.511-3.986c-2.084-0.874-4.481,0.108-5.354,2.192C4.446,53.989,5.427,56.386,7.511,57.26z"/>
    <path d="M61.415,42.806c2.087,0.864,4.48-0.127,5.345-2.215l3.93-9.488c0.865-2.087-0.127-4.48-2.214-5.345c-2.087-0.864-4.48,0.127-5.345,2.215l-3.93,9.488C58.337,39.548,59.328,41.941,61.415,42.806z"/>
    <path d="M29.53,74.554h40.941c2.259,0,4.091-1.832,4.091-4.091c0-2.26-1.832-4.091-4.091-4.091H29.53c-2.259,0-4.091,1.831-4.091,4.091C25.439,72.722,27.27,74.554,29.53,74.554z"/>
  </g>
</svg>
